<?xml version="1.0" encoding="UTF-8"?><!DOCTYPE svg PUBLIC "-//W3C//DTD SVG 1.1//EN" "http://www.w3.org/Graphics/SVG/1.1/DTD/svg11.dtd"><svg xmlns="http://www.w3.org/2000/svg" xmlns:xlink="http://www.w3.org/1999/xlink"><symbol id="starplyr-airplay" viewBox="0 0 18 18"><path d="M4.9 16.13h8.2a.38.38 0 00.29-.62l-4.1-4.92a.38.38 0 00-.58 0l-4.1 4.92a.38.38 0 00.29.62z"/><path d="M16.82 1.87H1.18A1.18 1.18 0 000 3.05v9.58a1.18 1.18 0 001.18 1.18h2.7a.34.34 0 00.34-.34v-1a.34.34 0 00-.34-.34H1.69V3.56h14.62v8.56h-2.24a.29.29 0 00-.29.29v1.11a.29.29 0 00.29.29h2.75A1.18 1.18 0 0018 12.63V3.05a1.18 1.18 0 00-1.18-1.18z"/></symbol><symbol id="starplyr-captions-off" viewBox="0 0 18 18"><path d="M16.91 2.18H1.09A1.09 1.09 0 000 3.27v11.46a1.09 1.09 0 001.09 1.09h15.82A1.09 1.09 0 0018 14.73V3.27a1.09 1.09 0 00-1.09-1.09zm-9.1 9.57a2.67 2.67 0 01-2.12.85 2.87 2.87 0 01-2.31-1A3.93 3.93 0 012.52 9a3.85 3.85 0 01.86-2.59 2.88 2.88 0 012.31-1 2.64 2.64 0 012.16.86 3.63 3.63 0 01.87 1.61H7.33A2.15 2.15 0 006.84 7a1.37 1.37 0 00-1.1-.42 1.6 1.6 0 00-1.35.65A2.78 2.78 0 003.9 9a2.85 2.85 0 00.49 1.74 1.58 1.58 0 001.35.68A1.35 1.35 0 006.83 11a2.45 2.45 0 00.53-1h1.39a3.85 3.85 0 01-.94 1.75zm6.73 0a2.66 2.66 0 01-2.11.85 2.89 2.89 0 01-2.32-1A3.93 3.93 0 019.25 9a3.85 3.85 0 01.86-2.59 2.9 2.9 0 012.32-1 2.66 2.66 0 012.16.86 3.59 3.59 0 01.86 1.61h-1.39a2 2 0 00-.49-.88 1.37 1.37 0 00-1.1-.42 1.61 1.61 0 00-1.35.65A2.78 2.78 0 0010.63 9a2.85 2.85 0 00.49 1.74 1.59 1.59 0 001.35.68 1.38 1.38 0 001.1-.45 2.6 2.6 0 00.53-.97h1.38a3.85 3.85 0 01-.94 1.75z" opacity=".5"/></symbol><symbol id="starplyr-captions-on" viewBox="0 0 18 18"><path d="M16.91 2.18H1.09A1.09 1.09 0 000 3.27v11.46a1.09 1.09 0 001.09 1.09h15.82A1.09 1.09 0 0018 14.73V3.27a1.09 1.09 0 00-1.09-1.09zm-9.1 9.57a2.67 2.67 0 01-2.12.85 2.87 2.87 0 01-2.31-1A3.93 3.93 0 012.52 9a3.85 3.85 0 01.86-2.59 2.88 2.88 0 012.31-1 2.64 2.64 0 012.16.86 3.63 3.63 0 01.87 1.61H7.33A2.15 2.15 0 006.84 7a1.37 1.37 0 00-1.1-.42 1.6 1.6 0 00-1.35.65A2.78 2.78 0 003.9 9a2.85 2.85 0 00.49 1.74 1.58 1.58 0 001.35.68A1.35 1.35 0 006.83 11a2.45 2.45 0 00.53-1h1.39a3.85 3.85 0 01-.94 1.75zm6.73 0a2.66 2.66 0 01-2.11.85 2.89 2.89 0 01-2.32-1A3.93 3.93 0 019.25 9a3.85 3.85 0 01.86-2.59 2.9 2.9 0 012.32-1 2.66 2.66 0 012.16.86 3.59 3.59 0 01.86 1.61h-1.39a2 2 0 00-.49-.88 1.37 1.37 0 00-1.1-.42 1.61 1.61 0 00-1.35.65A2.78 2.78 0 0010.63 9a2.85 2.85 0 00.49 1.74 1.59 1.59 0 001.35.68 1.38 1.38 0 001.1-.45 2.6 2.6 0 00.53-.97h1.38a3.85 3.85 0 01-.94 1.75z"/></symbol><symbol id="starplyr-download" viewBox="0 0 18 18"><rect x="1.91" y="14.97" width="14.18" height="2.03" rx="1.01"/><path d="M14.92 6.78a.94.94 0 00-1.35 0l-3.65 3.65V2A1 1 0 008 2v8.43l-3.56-3.7a1 1 0 00-1.37 1.33l5.06 5.16a1 1 0 00.84.53.94.94 0 00.81-.49l5.14-5.14a1 1 0 000-1.34z"/></symbol><symbol id="starplyr-enter-fullscreen" viewBox="0 0 18 18"><path d="M.76 5.88A.76.76 0 010 5.12V3.18a1.37 1.37 0 011.37-1.37h1.94a.76.76 0 010 1.52H1.52v1.79a.76.76 0 01-.76.76zm16.48 0a.76.76 0 01-.76-.76V3.33h-1.79a.76.76 0 110-1.52h1.94A1.37 1.37 0 0118 3.18v1.94a.76.76 0 01-.76.76zm-.61-2.55zm0 12.86h-1.94a.76.76 0 010-1.52h1.79v-1.79a.76.76 0 111.52 0v1.94a1.37 1.37 0 01-1.37 1.37zm-13.32 0H1.37A1.37 1.37 0 010 14.82v-1.94a.76.76 0 111.52 0v1.79h1.79a.76.76 0 110 1.52z"/><rect x="3.92" y="4.47" width="10.08" height="8.93" rx="1.63"/></symbol><symbol id="starplyr-exit-fullscreen" viewBox="0 0 18 18"><path d="M.76 5.88A.76.76 0 010 5.12V3.18a1.37 1.37 0 011.37-1.37h1.94a.76.76 0 010 1.52H1.52v1.79a.76.76 0 01-.76.76zm16.48 0a.76.76 0 01-.76-.76V3.33h-1.79a.76.76 0 110-1.52h1.94A1.37 1.37 0 0118 3.18v1.94a.76.76 0 01-.76.76zm-.61-2.55zm0 12.86h-1.94a.76.76 0 010-1.52h1.79v-1.79a.76.76 0 111.52 0v1.94a1.37 1.37 0 01-1.37 1.37zm-13.32 0H1.37A1.37 1.37 0 010 14.82v-1.94a.76.76 0 111.52 0v1.79h1.79a.76.76 0 110 1.52z"/><rect x="6.02" y="5.81" width="6.41" height="6.41" rx="1.01"/></symbol><symbol id="starplyr-fast-forward" viewBox="0 0 18 18"><path d="M8.6 8.59L2.16 4.3A.75.75 0 001 4.92v8.16a.75.75 0 001.13.64l6.44-3.86a.75.75 0 00.03-1.27zm8.07 0L10.23 4.3a.75.75 0 00-1.16.62v8.16a.75.75 0 001.13.64l6.44-3.86a.76.76 0 00.03-1.27z"/></symbol><symbol id="starplyr-logo-starplayer" viewBox="0 0 18 18"><path d="M1.13 7.77A.26.26 0 011 7.42a.26.26 0 01.36-.1l1 .56v.61zM16 7.18L6 1.45a2.11 2.11 0 00-3.13 1.83V8.1l6 3.48a.26.26 0 01.09.36.26.26 0 01-.36.1L2.87 8.71v6A2.11 2.11 0 006 16.55l8.61-5L8.45 8a.27.27 0 01.27-.46l6.45 3.72.78-.45A2.1 2.1 0 0016 7.18zm.35 5.57a.26.26 0 00.36-.09.27.27 0 00-.1-.36l-1-.57-.53.3z"/></symbol><symbol id="starplyr-logo-vimeo" viewBox="0 0 18 18"><path d="M17 5.3c-.1 1.6-1.2 3.7-3.3 6.4-2.2 2.8-4 4.2-5.5 4.2-.9 0-1.7-.9-2.4-2.6C5 10.9 4.4 6 3 6c-.1 0-.5.3-1.2.8l-.8-1c.8-.7 3.5-3.4 4.7-3.5 1.2-.1 2 .7 2.3 2.5.3 2 .8 6.1 1.8 6.1.9 0 2.5-3.4 2.6-4 .1-.9-.3-1.9-2.3-1.1.8-2.6 2.3-3.8 4.5-3.8 1.7.1 2.5 1.2 2.4 3.3z"/></symbol><symbol id="starplyr-logo-youtube" viewBox="0 0 18 18"><path d="M17.29 5.6A2.63 2.63 0 0015 3.05a41.38 41.38 0 00-11.9 0A2.55 2.55 0 00.71 5.6a27.63 27.63 0 000 6.8A2.64 2.64 0 003.05 15a41.62 41.62 0 006 .43A41.62 41.62 0 0015 15a2.72 2.72 0 002.34-2.55A28.18 28.18 0 0017.5 9a28.18 28.18 0 00-.21-3.4zM6.88 12.19V5.81L12.19 9z"/></symbol><symbol id="starplyr-muted" viewBox="0 0 18 18"><path d="M3.58 5.88h-3a.56.56 0 00-.58.57v5a.57.57 0 00.57.55h3a.57.57 0 01.37.14l3.61 3.16a.56.56 0 00.94-.42V3.15a.56.56 0 00-.93-.43L4 5.75a.59.59 0 01-.42.13zm8.79 6.31a.79.79 0 01-.53-.22.75.75 0 010-1.06L16.72 6a.75.75 0 011.06 1.06L12.9 12a.79.79 0 01-.53.19z"/><path d="M17.25 12.19a.79.79 0 01-.53-.22l-4.88-4.88A.75.75 0 0112.9 6l4.88 4.88a.75.75 0 010 1.06.77.77 0 01-.53.25z"/></symbol><symbol id="starplyr-pause" viewBox="0 0 18 18"><rect x="1.56" y=".5" width="5.31" height="17" rx="1.02"/><rect x="11.13" y=".5" width="5.31" height="17" rx=".93"/></symbol><symbol id="starplyr-pip" viewBox="0 0 18 18"><rect x="8.22" y="7.96" width="6.37" height="4.68" rx=".58"/><path d="M16.9 15.84H1.1a1 1 0 01-1-1V3.14a1 1 0 011-1h15.8a1 1 0 011 1v11.72a1 1 0 01-1 .98zM2.52 14.41h13a1 1 0 001-1V4.56a1 1 0 00-1-1h-13a1 1 0 00-1 1v8.87a1 1 0 001 .98z"/><path d="M16.9 16H1.1A1.1 1.1 0 010 14.86V3.14A1.1 1.1 0 011.1 2h15.8A1.1 1.1 0 0118 3.14v11.72A1.1 1.1 0 0116.9 16zM1.1 2.29a.85.85 0 00-.85.85v11.72a.85.85 0 00.85.85h15.8a.85.85 0 00.85-.85V3.14a.85.85 0 00-.85-.85zm14.37 12.24H2.52a1.09 1.09 0 01-1.09-1.1V4.57a1.09 1.09 0 011.09-1.1h13a1.1 1.1 0 011.1 1.1v8.86a1.1 1.1 0 01-1.15 1.1zM2.52 3.72a.86.86 0 00-.85.85v8.86a.86.86 0 00.85.85h13a.85.85 0 00.85-.85V4.57a.85.85 0 00-.85-.85z"/></symbol><symbol id="starplyr-play-center" viewBox="0 0 50 50"><path class="a" d="M11.23 22.86a.46.46 0 01-.17-.63.47.47 0 01.63-.18l1.74 1v1.07zm25.93-1.05l-17.35-10A3.69 3.69 0 0014.28 15v8.44l10.56 6.09a.47.47 0 01.17.63.46.46 0 01-.63.17l-10.1-5.83V35a3.69 3.69 0 005.53 3.19l15.06-8.7L24 23.26a.46.46 0 01-.16-.63.47.47 0 01.63-.17L35.79 29l1.37-.79a3.69 3.69 0 000-6.4zm.69 9.76a.46.46 0 00.47-.8l-1.74-1-.92.53z"/></symbol><symbol id="starplyr-play" viewBox="0 0 18 18"><path d="M15.44 7.5L4.37.76a1.75 1.75 0 00-2.66 1.49v13.5a1.75 1.75 0 002.66 1.49l11.07-6.74a1.76 1.76 0 000-3z"/></symbol><symbol id="starplyr-repeat-begin" viewBox="0 0 18 18"><path d="M9.23 16.25L14 10.79A6 6 0 009 1.5a6 6 0 00-5.13 9.05l4.41 5.68a.57.57 0 00.95.02z"/></symbol><symbol id="starplyr-repeat-end" viewBox="0 0 18 18"><path d="M8.77 1.75L4 7.21a6 6 0 005 9.29 6 6 0 005.13-9L9.72 1.77a.57.57 0 00-.95-.02z"/></symbol><symbol id="starplyr-repeat-off" viewBox="0 0 18 18"><g opacity=".5"><path d="M17 14.82h-5.61a.71.71 0 01-.71-.71.7.7 0 01.71-.7h4.24a.7.7 0 00.7-.71V5.18a.7.7 0 00-.7-.7h-4.24a.71.71 0 01-.71-.71.7.7 0 01.71-.7H17a.7.7 0 01.7.7v10.34a.7.7 0 01-.7.71z"/><path d="M17 15.07h-5.61a1 1 0 010-1.92h4.24a.45.45 0 00.45-.45V5.18a.45.45 0 00-.45-.45h-4.24a1 1 0 010-1.92H17a1 1 0 011 1v10.3a1 1 0 01-1 .96zm-5.65-1.41a.45.45 0 00-.45.45.45.45 0 00.45.45H17a.45.45 0 00.45-.45V3.77a.45.45 0 00-.45-.45h-5.61a.45.45 0 100 .9h4.24a1 1 0 011 1v7.48a1 1 0 01-1 1z"/><path d="M13.26 17.23a.66.66 0 01-.44-.17l-2.68-2.52a.64.64 0 010-.93l2.68-2.53a.64.64 0 01.88.94l-2.17 2.05 2.17 2.05a.65.65 0 010 .91.67.67 0 01-.44.2z"/><path d="M13.26 17.62a1 1 0 01-.71-.28l-2.67-2.51a1 1 0 01-.32-.75 1 1 0 01.32-.75l2.67-2.53a1 1 0 011.46 0 1 1 0 01.28.74 1 1 0 01-.32.72l-1.88 1.77L14 15.84a1 1 0 01-.71 1.78zm0-6.33a.24.24 0 00-.18.07l-2.67 2.53a.26.26 0 00-.08.19.25.25 0 00.08.18l2.67 2.52a.24.24 0 00.37 0 .27.27 0 000-.37L11 14.07l2.48-2.33a.25.25 0 00.08-.18.32.32 0 00-.07-.19.27.27 0 00-.23-.08zM1 3.24h5.61a.71.71 0 01.71.76.7.7 0 01-.71.7H2.37a.7.7 0 00-.7.71v7.52a.7.7 0 00.7.7h4.24a.71.71 0 01.71.71.7.7 0 01-.71.7H1a.7.7 0 01-.7-.7V4a.7.7 0 01.7-.76z"/><path d="M6.61 15.25H1a1 1 0 01-1-1V4a1 1 0 011-1h5.61a1 1 0 010 1.92H2.37a.45.45 0 00-.45.45v7.52a.45.45 0 00.45.45h4.24a1 1 0 110 1.92zM1 3.5a.45.45 0 00-.49.5v10.29a.45.45 0 00.45.45h5.65a.45.45 0 000-.9H2.37a1 1 0 01-1-1V5.36a1 1 0 011-1h4.24a.45.45 0 000-.9z"/><path d="M5.37.76a.66.66 0 01.45.18l2.73 2.57a.64.64 0 010 1L5.82 7.05a.66.66 0 01-.9-1L7.14 4 4.92 1.9a.65.65 0 010-.93.64.64 0 01.45-.21z"/><path d="M5.37 7.61a1 1 0 01-.72-1.8L6.58 4 4.65 2.18A1 1 0 014.61.7a1.07 1.07 0 011.48 0l2.73 2.52a1.07 1.07 0 01.33.78 1 1 0 01-.33.75L6.09 7.33a1 1 0 01-.72.28zm0-6.47a.25.25 0 00-.2.09.28.28 0 000 .39L7.7 4 5.18 6.37a.28.28 0 10.38.4l2.73-2.59A.25.25 0 008.38 4a.29.29 0 00-.09-.2L5.56 1.22a.29.29 0 00-.19-.08z"/></g></symbol><symbol id="starplyr-repeat-on" viewBox="0 0 18 18"><path d="M17 14.82h-5.61a.71.71 0 01-.71-.71.7.7 0 01.71-.7h4.24a.7.7 0 00.7-.71V5.18a.7.7 0 00-.7-.7h-4.24a.71.71 0 01-.71-.71.7.7 0 01.71-.7H17a.7.7 0 01.7.7v10.34a.7.7 0 01-.7.71z"/><path d="M17 15.07h-5.61a1 1 0 010-1.92h4.24a.45.45 0 00.45-.45V5.18a.45.45 0 00-.45-.45h-4.24a1 1 0 010-1.92H17a1 1 0 011 1v10.3a1 1 0 01-1 .96zm-5.65-1.41a.45.45 0 00-.45.45.45.45 0 00.45.45H17a.45.45 0 00.45-.45V3.77a.45.45 0 00-.45-.45h-5.61a.45.45 0 100 .9h4.24a1 1 0 011 1v7.48a1 1 0 01-1 1z"/><path d="M13.26 17.23a.66.66 0 01-.44-.17l-2.68-2.52a.64.64 0 010-.93l2.68-2.53a.64.64 0 01.88.94l-2.17 2.05 2.17 2.05a.65.65 0 010 .91.67.67 0 01-.44.2z"/><path d="M13.26 17.62a1 1 0 01-.71-.28l-2.67-2.51a1 1 0 01-.32-.75 1 1 0 01.32-.75l2.67-2.53a1 1 0 011.46 0 1 1 0 01.28.74 1 1 0 01-.32.72l-1.88 1.77L14 15.84a1 1 0 01-.71 1.78zm0-6.33a.24.24 0 00-.18.07l-2.67 2.53a.26.26 0 00-.08.19.25.25 0 00.08.18l2.67 2.52a.24.24 0 00.37 0 .27.27 0 000-.37L11 14.07l2.48-2.33a.25.25 0 00.08-.18.32.32 0 00-.07-.19.27.27 0 00-.23-.08zM1 3.24h5.61a.71.71 0 01.71.76.7.7 0 01-.71.7H2.37a.7.7 0 00-.7.71v7.52a.7.7 0 00.7.7h4.24a.71.71 0 01.71.71.7.7 0 01-.71.7H1a.7.7 0 01-.7-.7V4a.7.7 0 01.7-.76z"/><path d="M6.61 15.25H1a1 1 0 01-1-1V4a1 1 0 011-1h5.61a1 1 0 010 1.92H2.37a.45.45 0 00-.45.45v7.52a.45.45 0 00.45.45h4.24a1 1 0 110 1.92zM1 3.5a.45.45 0 00-.49.5v10.29a.45.45 0 00.45.45h5.65a.45.45 0 000-.9H2.37a1 1 0 01-1-1V5.36a1 1 0 011-1h4.24a.45.45 0 000-.9z"/><path d="M5.37.76a.66.66 0 01.45.18l2.73 2.57a.64.64 0 010 1L5.82 7.05a.66.66 0 01-.9-1L7.14 4 4.92 1.9a.65.65 0 010-.93.64.64 0 01.45-.21z"/><path d="M5.37 7.61a1 1 0 01-.72-1.8L6.58 4 4.65 2.18A1 1 0 014.61.7a1.07 1.07 0 011.48 0l2.73 2.52a1.07 1.07 0 01.33.78 1 1 0 01-.33.75L6.09 7.33a1 1 0 01-.72.28zm0-6.47a.25.25 0 00-.2.09.28.28 0 000 .39L7.7 4 5.18 6.37a.28.28 0 10.38.4l2.73-2.59A.25.25 0 008.38 4a.29.29 0 00-.09-.2L5.56 1.22a.29.29 0 00-.19-.08z"/></symbol><symbol id="starplyr-repeat" viewBox="0 0 18 18"><path d="M17 14.82h-5.61a.71.71 0 01-.71-.71.7.7 0 01.71-.7h4.24a.7.7 0 00.7-.71V5.18a.7.7 0 00-.7-.7h-4.24a.71.71 0 01-.71-.71.7.7 0 01.71-.7H17a.7.7 0 01.7.7v10.34a.7.7 0 01-.7.71z"/><path d="M17 15.07h-5.61a1 1 0 010-1.92h4.24a.45.45 0 00.45-.45V5.18a.45.45 0 00-.45-.45h-4.24a1 1 0 010-1.92H17a1 1 0 011 1v10.3a1 1 0 01-1 .96zm-5.65-1.41a.45.45 0 00-.45.45.45.45 0 00.45.45H17a.45.45 0 00.45-.45V3.77a.45.45 0 00-.45-.45h-5.61a.45.45 0 100 .9h4.24a1 1 0 011 1v7.48a1 1 0 01-1 1z"/><path d="M13.26 17.23a.66.66 0 01-.44-.17l-2.68-2.52a.64.64 0 010-.93l2.68-2.53a.64.64 0 01.88.94l-2.17 2.05 2.17 2.05a.65.65 0 010 .91.67.67 0 01-.44.2z"/><path d="M13.26 17.62a1 1 0 01-.71-.28l-2.67-2.51a1 1 0 01-.32-.75 1 1 0 01.32-.75l2.67-2.53a1 1 0 011.46 0 1 1 0 01.28.74 1 1 0 01-.32.72l-1.88 1.77L14 15.84a1 1 0 01-.71 1.78zm0-6.33a.24.24 0 00-.18.07l-2.67 2.53a.26.26 0 00-.08.19.25.25 0 00.08.18l2.67 2.52a.24.24 0 00.37 0 .27.27 0 000-.37L11 14.07l2.48-2.33a.25.25 0 00.08-.18.32.32 0 00-.07-.19.27.27 0 00-.23-.08zM1 3.24h5.61a.71.71 0 01.71.76.7.7 0 01-.71.7H2.37a.7.7 0 00-.7.71v7.52a.7.7 0 00.7.7h4.24a.71.71 0 01.71.71.7.7 0 01-.71.7H1a.7.7 0 01-.7-.7V4a.7.7 0 01.7-.76z"/><path d="M6.61 15.25H1a1 1 0 01-1-1V4a1 1 0 011-1h5.61a1 1 0 010 1.92H2.37a.45.45 0 00-.45.45v7.52a.45.45 0 00.45.45h4.24a1 1 0 110 1.92zM1 3.5a.45.45 0 00-.49.5v10.29a.45.45 0 00.45.45h5.65a.45.45 0 000-.9H2.37a1 1 0 01-1-1V5.36a1 1 0 011-1h4.24a.45.45 0 000-.9z"/><path d="M5.37.76a.66.66 0 01.45.18l2.73 2.57a.64.64 0 010 1L5.82 7.05a.66.66 0 01-.9-1L7.14 4 4.92 1.9a.65.65 0 010-.93.64.64 0 01.45-.21z"/><path d="M5.37 7.61a1 1 0 01-.72-1.8L6.58 4 4.65 2.18A1 1 0 014.61.7a1.07 1.07 0 011.48 0l2.73 2.52a1.07 1.07 0 01.33.78 1 1 0 01-.33.75L6.09 7.33a1 1 0 01-.72.28zm0-6.47a.25.25 0 00-.2.09.28.28 0 000 .39L7.7 4 5.18 6.37a.28.28 0 10.38.4l2.73-2.59A.25.25 0 008.38 4a.29.29 0 00-.09-.2L5.56 1.22a.29.29 0 00-.19-.08z"/></symbol><symbol id="starplyr-restart" viewBox="0 0 18 18"><path d="M9.86 1l.69 6.25a.32.32 0 00.55.19l1.79-1.79a5.41 5.41 0 010 7.57 5.07 5.07 0 01-3.78 1.62 5.09 5.09 0 01-3.79-1.62 5.43 5.43 0 010-7.57 5.6 5.6 0 011.56-1.09 1.09 1.09 0 00.62-1.31 1.06 1.06 0 00-1.41-.67A7.21 7.21 0 003.7 4.14a7.63 7.63 0 000 10.7A7.56 7.56 0 009 17a7.39 7.39 0 005.3-2.16 7.63 7.63 0 000-10.7l1.9-1.91a.32.32 0 00-.2-.55L9.86 1z"/></symbol><symbol id="starplyr-rewind" viewBox="0 0 18 18"><path d="M9.43 9.44l6.36 4.24A.78.78 0 0017 13V5a.78.78 0 00-1.18-.67L9.46 8.12a.78.78 0 00-.03 1.32zm-8.08 0l6.36 4.24A.78.78 0 008.92 13V5a.78.78 0 00-1.18-.7L1.38 8.12a.78.78 0 00-.03 1.32z"/></symbol><symbol id="starplyr-settings" viewBox="0 0 18 18"><path d="M15.29 10.08A5.49 5.49 0 0015.4 9a6 6 0 00-.11-1.13l1.69-1a7.06 7.06 0 00-.51-1.35 7.85 7.85 0 00-.7-1.16 7.94 7.94 0 00-1-1.13l-1.69 1a6.62 6.62 0 00-1.88-1V1.29A8.17 8.17 0 009.72 1a7.75 7.75 0 00-1.38 0 8 8 0 00-1.53.26v1.9a6.45 6.45 0 00-1.92 1.1l-1.7-.95a8 8 0 00-1 1.1 8.12 8.12 0 00-.69 1.15A7.64 7.64 0 001 7l1.71 1a5.49 5.49 0 00-.11 1 6 6 0 00.11 1.13L1 11.09a7.06 7.06 0 00.51 1.35 7.85 7.85 0 00.7 1.16 7.94 7.94 0 001 1.13l1.69-1a6.62 6.62 0 001.88 1v1.9a8.17 8.17 0 001.5.37 7.75 7.75 0 001.38 0 8 8 0 001.53-.26v-1.9a6.45 6.45 0 001.92-1.07l1.7.95a8 8 0 001-1.1 8.12 8.12 0 00.69-1.15A7.64 7.64 0 0017 11zM9 11.41A2.46 2.46 0 016.5 9a2.5 2.5 0 015 0A2.46 2.46 0 019 11.41z"/></symbol><symbol id="starplyr-volume" viewBox="0 0 18 18"><path d="M3.44 6H.54a.54.54 0 00-.54.55v4.75a.55.55 0 00.54.55h2.89a.53.53 0 01.36.13l3.46 3a.54.54 0 00.9-.41V3.39A.54.54 0 007.26 3L3.79 5.88a.56.56 0 01-.35.12zM11 13.56a.87.87 0 01-.55-1.56A4.29 4.29 0 0012 8.8a3.1 3.1 0 00-1.4-2.72.86.86 0 01-.4-1.18.88.88 0 011.18-.36 4.84 4.84 0 012.33 4.26 6 6 0 01-2.22 4.59.92.92 0 01-.49.17z"/><path d="M14.38 15.3a.87.87 0 01-.52-1.57 6.65 6.65 0 002.4-5A5 5 0 0014 4.34a.87.87 0 01-.35-1.18.85.85 0 011.17-.36A6.68 6.68 0 0118 8.7a8.41 8.41 0 01-3.1 6.43.85.85 0 01-.52.17z"/></symbol></svg>